<svg width="24" height="24" viewBox="0 0 24 24" fill="none" xmlns="http://www.w3.org/2000/svg">
<path fill-rule="evenodd" clip-rule="evenodd" d="M9.5 17.75C14.0563 17.75 17.75 14.0563 17.75 9.5C17.75 4.94365 14.0563 1.25 9.5 1.25C4.94365 1.25 1.25 4.94365 1.25 9.5C1.25 14.0563 4.94365 17.75 9.5 17.75ZM16.5905 15.8227C18.0891 14.1433 19 11.928 19 9.5C19 4.25329 14.7467 0 9.5 0C4.25329 0 0 4.25329 0 9.5C0 14.7467 4.25329 19 9.5 19C11.8688 19 14.0352 18.133 15.699 16.699L23 24L23.8839 23.1161L16.5905 15.8227ZM9.90716 4.00072C9.1822 4.01194 8.46241 4.15452 7.7835 4.42442C6.79201 4.81857 5.92355 5.46999 5.26764 6.31154C4.61173 7.15308 4.19209 8.15432 4.05196 9.21204C3.95602 9.93631 3.99351 10.6691 4.15965 11.3749L6.01542 10.5932C5.9603 10.223 5.9568 9.84528 6.00639 9.47095C6.10047 8.76078 6.38222 8.08853 6.82261 7.5235C7.26301 6.95848 7.8461 6.5211 8.51181 6.25646C8.86269 6.11697 9.22984 6.02813 9.60231 5.99118L9.90716 4.00072ZM10.0604 3.00026C9.15772 2.99247 8.25879 3.15935 7.41409 3.49515C6.25734 3.955 5.24414 4.71499 4.47891 5.69679C3.71368 6.6786 3.2241 7.8467 3.06063 9.08072C2.94125 9.98185 2.99892 10.8943 3.22689 11.7678C3.3111 12.0904 3.41855 12.4077 3.54889 12.7172L4.47048 12.329L6.28739 11.5638L7.20898 11.1756C6.99992 10.6793 6.927 10.1362 6.99773 9.60228C7.06846 9.06839 7.28027 8.56302 7.61134 8.13825C7.94241 7.71348 8.38077 7.38467 8.88122 7.18572C9.38134 6.98691 9.9254 6.92496 10.4574 7.00624L10.4585 7.00641L10.6099 6.01793L10.9083 4.06916L11.0597 3.08068L11.059 3.08057C10.7273 3.02981 10.3936 3.00313 10.0604 3.00026Z" fill="#9B9B9B"/>
</svg>
